<svg width="54" height="48" viewBox="0 0 54 48" fill="none" xmlns="http://www.w3.org/2000/svg">
<path d="M11.523 14.785C11.5532 14.9369 11.5848 15.0895 11.6178 15.2428C11.3826 15.3172 11.1505 15.3935 10.922 15.4719L10.9219 15.4719C8.28282 16.3768 6.04344 17.5627 4.43899 18.9541C2.8463 20.3354 1.75 22.0412 1.75 23.9602C1.75 25.9363 2.91767 27.7165 4.58734 29.1563C6.27617 30.6127 8.62738 31.8593 11.3789 32.7842L11.7772 31.5994L11.3789 32.7842C11.4494 32.8079 11.5202 32.8314 11.5914 32.8546C11.5488 33.0533 11.5085 33.2507 11.4707 33.4467C10.9484 36.1521 10.8737 38.6587 11.2991 40.7268C11.7223 42.7845 12.6802 44.5643 14.3564 45.5151L14.3565 45.5151C16.0778 46.4913 18.2121 46.3913 20.3136 45.6884C22.4376 44.9781 24.7105 43.5982 26.9018 41.7145L26.9018 41.7144C26.9639 41.661 27.026 41.6071 27.088 41.5527C27.2516 41.6972 27.4151 41.8387 27.5785 41.9771L27.5787 41.9772C29.6991 43.7717 31.8648 45.0831 33.8905 45.7507C35.9026 46.4137 37.9361 46.4872 39.6058 45.5365C41.3307 44.5545 42.3154 42.675 42.7481 40.5217C43.1848 38.3485 43.1034 35.7163 42.5377 32.9059C42.5266 32.8505 42.5152 32.795 42.5036 32.7394C45.2673 31.8184 47.622 30.6052 49.3224 29.1879C51.0445 27.7525 52.25 25.9686 52.25 23.9602C52.25 22.0231 51.1134 20.3085 49.4862 18.9261C47.8436 17.5306 45.5545 16.339 42.8665 15.429L42.8664 15.429C42.7121 15.3767 42.5563 15.3254 42.3991 15.2749C42.9916 12.4083 43.1089 9.74468 42.703 7.55015C42.2968 5.35438 41.324 3.44235 39.5693 2.44717L38.9548 3.53066L39.5693 2.44717C37.8825 1.49057 35.8216 1.59676 33.7918 2.29218C31.7444 2.99366 29.551 4.34821 27.4046 6.18525C27.2756 6.29571 27.1466 6.40803 27.0177 6.52212C24.7808 4.57407 22.487 3.13837 20.3498 2.38785C18.2242 1.64142 16.0676 1.51505 14.3202 2.50995C12.6297 3.47238 11.6869 5.2926 11.2835 7.38133C10.8773 9.48477 10.9761 12.0364 11.523 14.785ZM11.523 14.785L12.749 14.5412M11.523 14.785L12.749 14.5412M12.749 14.5412C11.6961 9.24935 12.4369 5.02048 14.9386 3.59624C17.5475 2.11091 21.8923 3.70598 26.2269 7.49102C26.4914 7.72201 26.7566 7.9635 27.0222 8.21339L11.3273 16.6543C11.8953 16.4596 12.489 16.2766 13.1039 16.105C12.9695 15.5743 12.8506 15.0523 12.749 14.5412Z" fill="#F2F2F2" stroke="#F2F2F2" stroke-width="2.5"/>
<path d="M42.4656 16.613C41.9677 16.4444 41.4517 16.2849 40.9205 16.1341C41.0078 15.7836 41.0879 15.4377 41.1592 15.0977C42.3288 9.51386 41.5641 5.01552 38.9526 3.53448C36.4486 2.11435 32.3534 3.59506 28.2174 7.13492C27.8197 7.47531 27.4209 7.83569 27.0222 8.21339C26.7566 7.9635 26.4914 7.72201 26.2269 7.49102C21.8923 3.70598 17.5475 2.11091 14.9386 3.59624C12.4369 5.02048 11.6961 9.24935 12.749 14.5412C12.8506 15.0523 12.9695 15.5743 13.1039 16.105C12.489 16.2766 11.8953 16.4596 11.3273 16.6543C6.2455 18.3968 3 21.1276 3 23.9602C3 26.8858 6.48405 29.8201 11.7772 31.5994C12.1949 31.7398 12.6283 31.8726 13.075 31.9986C12.93 32.5726 12.8039 33.1351 12.6981 33.6837C11.6941 38.8836 12.4781 43.0126 14.9731 44.4278C17.5502 45.8894 21.8753 44.3871 26.0869 40.7666C26.4198 40.4804 26.7538 40.1769 27.0885 39.8587C27.5223 40.2696 27.9554 40.6583 28.3862 41.023C32.4656 44.4754 36.4946 45.8695 38.9873 44.4503C41.5619 42.9845 42.3986 38.549 41.3123 33.1525C41.2293 32.7404 41.1328 32.3193 41.0244 31.8908C41.3281 31.8025 41.6263 31.7113 41.917 31.6165C47.4197 29.8235 51 26.9248 51 23.9602C51 21.1174 47.6498 18.3681 42.4656 16.613ZM41.2721 29.7023C41.0097 29.7878 40.7404 29.8704 40.4659 29.9505C39.8585 28.0591 39.0386 26.0479 38.0353 23.9701C38.9927 21.9417 39.7809 19.9562 40.3713 18.0771C40.8624 18.2169 41.3389 18.3643 41.7982 18.5198C46.24 20.0236 48.9495 22.247 48.9495 23.9602C48.9495 25.7851 46.0233 28.1541 41.2721 29.7023ZM39.3007 33.5442C39.781 35.9304 39.8497 38.0879 39.5315 39.7745C39.2456 41.29 38.6707 42.3004 37.9598 42.705C36.4471 43.5661 33.2122 42.4468 29.7235 39.4943C29.3235 39.1559 28.9207 38.7945 28.5165 38.412C29.8691 36.9572 31.2208 35.266 32.5401 33.3878C34.8605 33.1853 37.0528 32.8542 39.0409 32.4023C39.1388 32.7907 39.2258 33.1717 39.3007 33.5442ZM19.3643 42.5562C17.8864 43.0696 16.7093 43.0843 15.9977 42.6808C14.4836 41.8219 13.8542 38.5068 14.7128 34.0598C14.8111 33.5505 14.9282 33.0273 15.0631 32.4926C17.0294 32.9202 19.2056 33.2279 21.5316 33.4133C22.8598 35.2513 24.2506 36.9406 25.6521 38.4198C25.3459 38.7105 25.0409 38.9873 24.7376 39.2481C22.8752 40.8491 21.009 41.9849 19.3643 42.5562ZM12.4404 29.6912C10.0998 28.9044 8.16694 27.8819 6.84204 26.7661C5.65153 25.7634 5.05046 24.768 5.05046 23.9602C5.05046 22.2413 7.65627 20.0488 12.0023 18.5586C12.5296 18.3778 13.0817 18.2074 13.6545 18.0473C14.2552 19.9688 15.0431 21.9778 15.994 24.0093C15.0308 26.071 14.2317 28.112 13.6252 30.056C13.2168 29.9405 12.8211 29.819 12.4404 29.6912ZM14.7613 14.1539C13.8593 9.61999 14.4584 6.19979 15.9659 5.34155C17.5718 4.42726 21.1227 5.73084 24.8653 8.99904C25.1045 9.20793 25.3447 9.42656 25.5856 9.65276C24.1909 11.1255 22.8129 12.8021 21.4965 14.6292C19.239 14.835 17.0781 15.1656 15.0913 15.6082C14.9664 15.114 14.8557 14.6285 14.7613 14.1539ZM35.4664 19.1819C34.9914 18.3751 34.5038 17.5874 34.0067 16.8211C35.5382 17.0115 37.0055 17.2643 38.3835 17.5736C37.9698 18.8775 37.4542 20.2408 36.8472 21.6384C36.4118 20.8255 35.9513 20.0058 35.4664 19.1819ZM27.0229 11.094C27.9687 12.1017 28.9159 13.2268 29.8475 14.4475C28.9087 14.4039 27.9583 14.3813 27 14.3813C26.0508 14.3813 25.1073 14.4034 24.1743 14.4463C25.1069 13.2369 26.0623 12.1133 27.0229 11.094ZM18.5254 19.1959C18.0509 20.005 17.5989 20.8202 17.1704 21.6369C16.5732 20.2442 16.0624 18.8746 15.6451 17.5522C17.0146 17.2508 18.475 17.0044 19.9968 16.8176C19.4927 17.5909 19.0011 18.3846 18.5254 19.1959ZM20.0406 31.2467C18.4684 31.0742 16.986 30.8405 15.6168 30.5474C16.0408 29.2014 16.5629 27.8026 17.1727 26.3799C17.6024 27.196 18.0561 28.0116 18.5335 28.8224C19.0197 29.6485 19.5235 30.4576 20.0406 31.2467ZM27.0796 36.9687C26.1078 35.9374 25.1384 34.7967 24.1916 33.5696C25.1107 33.6051 26.0477 33.6232 27 33.6232C27.9784 33.6232 28.9455 33.6016 29.8975 33.5599C28.9628 34.809 28.019 35.9515 27.0796 36.9687ZM36.8668 26.3073C37.5084 27.7454 38.0492 29.1369 38.4786 30.46C37.0869 30.7722 35.5843 31.0237 34.0011 31.2106C34.4994 30.434 34.9912 29.6328 35.4746 28.8085C35.9635 27.9747 36.4278 27.1395 36.8668 26.3073ZM33.6984 27.8011C32.948 29.0805 32.1777 30.3019 31.3957 31.4549C29.9713 31.555 28.4998 31.6066 27 31.6066C25.5063 31.6066 24.0533 31.561 22.6541 31.4717C21.8406 30.3036 21.0535 29.0786 20.308 27.8121C19.5644 26.549 18.8802 25.2752 18.2601 24.0086C18.88 22.7391 19.5626 21.4639 20.3019 20.2031C21.0432 18.9389 21.8231 17.7201 22.6292 16.5594C24.0567 16.4533 25.5205 16.3979 26.9999 16.3979C28.486 16.3979 29.9518 16.4537 31.3789 16.5607C32.1726 17.713 32.9474 18.9281 33.6916 20.1924C34.4442 21.471 35.1356 22.7377 35.7609 23.98C35.1375 25.2437 34.4477 26.5231 33.6984 27.8011ZM37.9284 5.28155C39.5358 6.19315 40.1608 9.86963 39.1509 14.6906C39.0865 14.9983 39.014 15.3116 38.9352 15.6291C36.9438 15.1772 34.7813 14.841 32.5172 14.6321C31.1983 12.7849 29.8315 11.1057 28.4596 9.65184C28.8285 9.30288 29.1968 8.97013 29.5636 8.65613C33.1073 5.6232 36.4193 4.42574 37.9284 5.28155ZM27 19.7449C29.3672 19.7449 31.2862 21.6321 31.2862 23.9602C31.2862 26.2883 29.3672 28.1756 27 28.1756C24.6328 28.1756 22.7138 26.2883 22.7138 23.9602C22.7138 21.6321 24.6328 19.7449 27 19.7449Z" fill="#00D8FF"/>
</svg>
