<svg width="47" height="50" viewBox="0 0 47 50" fill="none" xmlns="http://www.w3.org/2000/svg">
<path d="M24.3536 2.58471L23.8566 2.41022L23.3597 2.58471L3.50307 9.55671L2.37052 9.95436L2.51019 11.1465L5.5388 36.9975L5.62911 37.7683L6.31045 38.1399L23.1385 47.3169L23.8566 47.7085L24.5748 47.3169L41.4028 38.1399L42.0841 37.7683L42.1744 36.9975L45.2031 11.1465L45.3427 9.95436L44.2102 9.55671L24.3536 2.58471Z" fill="#DD0031" stroke="#F2F2F2" stroke-width="3"/>
<path d="M24.1434 4V8.662V8.641V29.914V46L40.9714 36.823L44 10.972L24.1434 4Z" fill="#C3002F"/>
<path d="M24.1434 8.64111L11.7303 36.0461H16.3586L18.854 29.9141H29.3901L31.8855 36.0461H36.5138L24.1434 8.64111ZM27.7692 26.1341H20.5176L24.1434 17.5451L27.7692 26.1341Z" fill="white"/>
</svg>
