<svg width="40" height="40" viewBox="0 0 40 40" fill="none" xmlns="http://www.w3.org/2000/svg">
<path d="M11.6667 27.0838H15C15.3315 27.0838 15.6495 27.2155 15.8839 27.4499C16.1183 27.6843 16.25 28.0023 16.25 28.3338C16.25 28.6653 16.1183 28.9833 15.8839 29.2177C15.6495 29.4521 15.3315 29.5838 15 29.5838H11.6667C11.3351 29.5838 11.0172 29.4521 10.7828 29.2177C10.5484 28.9833 10.4167 28.6653 10.4167 28.3338C10.4167 28.0023 10.5484 27.6843 10.7828 27.4499C11.0172 27.2155 11.3351 27.0838 11.6667 27.0838Z" fill="#892BE2"/>
<path fill-rule="evenodd" clip-rule="evenodd" d="M33.8 6.78382L35.6333 11.0505C36.0514 12.0358 36.2614 13.0969 36.25 14.1671V31.6671C36.25 32.8827 35.7671 34.0485 34.9076 34.9081C34.048 35.7676 32.8822 36.2505 31.6667 36.2505H8.75C7.42392 36.2505 6.15215 35.7237 5.21447 34.786C4.27679 33.8483 3.75 32.5766 3.75 31.2505V14.1671C3.74904 13.0962 3.96446 12.0361 4.38334 11.0505L6.2 6.78382C6.5897 5.87266 7.24136 5.09786 8.07225 4.55778C8.90314 4.0177 9.87577 3.73671 10.8667 3.75048H29.2C30.1796 3.74989 31.1378 4.03706 31.9555 4.57632C32.7733 5.11559 33.4147 5.88319 33.8 6.78382ZM33.3333 12.0338L31.5 7.71715V7.76715C31.3092 7.31554 30.9889 6.93052 30.5796 6.66062C30.1703 6.39072 29.6903 6.24801 29.2 6.25048H21.25V12.0838H31.6667C32.2779 12.0871 32.8829 12.2058 33.45 12.4338C33.4188 12.2984 33.3799 12.1648 33.3333 12.0338ZM9.42039 6.61062C9.01109 6.88052 8.69084 7.26554 8.5 7.71715L6.66667 12.0338C6.62206 12.1485 6.58313 12.2653 6.55 12.3838C7.11708 12.1558 7.72215 12.0371 8.33334 12.0338H18.75V6.20048H10.8C10.3097 6.19801 9.82969 6.34072 9.42039 6.61062ZM33.1398 33.1403C33.5305 32.7496 33.75 32.2197 33.75 31.6671V16.6671C33.75 16.1146 33.5305 15.5847 33.1398 15.194C32.7491 14.8033 32.2192 14.5838 31.6667 14.5838H8.33334C7.7808 14.5838 7.2509 14.8033 6.8602 15.194C6.4695 15.5847 6.25 16.1146 6.25 16.6671V31.2505C6.25 31.9135 6.51339 32.5494 6.98224 33.0182C7.45108 33.4871 8.08696 33.7505 8.75 33.7505H31.6667C32.2192 33.7505 32.7491 33.531 33.1398 33.1403Z" fill="#892BE2"/>
</svg>
